<svg xmlns="http://www.w3.org/2000/svg" viewBox="0 0 48 48">
 <defs>
  <linearGradient x2="47" gradientTransform="matrix(1 0 0 1 -48 0.002)" id="linearGradient3764" x1="1" gradientUnits="userSpaceOnUse">
   <stop style="stop-color:#aa3434;stop-opacity:1"/>
   <stop style="stop-color:#b93939;stop-opacity:1" offset="1"/>
  </linearGradient>
 </defs>
 <g>
  <path style="opacity:0.02" d="m 1 43 l 0 0.25 c 0 2.216 1.784 4 4 4 l 38 0 c 2.216 0 4 -1.784 4 -4 l 0 -0.25 c 0 2.216 -1.784 4 -4 4 l -38 0 c -2.216 0 -4 -1.784 -4 -4 z m 0 0.5 l 0 0.5 c 0 2.216 1.784 4 4 4 l 38 0 c 2.216 0 4 -1.784 4 -4 l 0 -0.5 c 0 2.216 -1.784 4 -4 4 l -38 0 c -2.216 0 -4 -1.784 -4 -4 z"/>
  <path style="opacity:0.05" d="m 1 43.25 l 0 0.25 c 0 2.216 1.784 4 4 4 l 38 0 c 2.216 0 4 -1.784 4 -4 l 0 -0.25 c 0 2.216 -1.784 4 -4 4 l -38 0 c -2.216 0 -4 -1.784 -4 -4 z"/>
  <path style="opacity:0.1" d="m 1 43 l 0 0.25 c 0 2.216 1.784 4 4 4 l 38 0 c 2.216 0 4 -1.784 4 -4 l 0 -0.25 c 0 2.216 -1.784 4 -4 4 l -38 0 c -2.216 0 -4 -1.784 -4 -4 z"/>
 </g>
 <rect width="46" style="fill:url(#linearGradient3764);fill-opacity:1" rx="4" height="46" x="-47" y="1" transform="matrix(0 -1 1 0 0 0)"/>
 <g>
  <g transform="matrix(1 0 0 1 0 -1004.36)">
   <path style="opacity:0.1" d="m 1 1043.36 0 4 c 0 2.216 1.784 4 4 4 l 38 0 c 2.216 0 4 -1.784 4 -4 l 0 -4 c 0 2.216 -1.784 4 -4 4 l -38 0 c -2.216 0 -4 -1.784 -4 -4 z"/>
  </g>
 </g>
</svg>